<mxfile host="app.diagrams.net" modified="2021-02-02T14:19:54.533Z" agent="5.0 (Windows NT 10.0; Win64; x64) AppleWebKit/537.36 (KHTML, like Gecko) Chrome/88.0.4324.96 Safari/537.36" etag="tPOoVd-I46FYNMYHXDnd" version="14.2.7" type="github">
  <diagram id="C5RBs43oDa-KdzZeNtuy" name="Page-1">
    <mxGraphModel dx="1422" dy="705" grid="1" gridSize="10" guides="1" tooltips="1" connect="1" arrows="1" fold="1" page="1" pageScale="1" pageWidth="827" pageHeight="1169" math="0" shadow="0">
      <root>
        <mxCell id="WIyWlLk6GJQsqaUBKTNV-0" />
        <mxCell id="WIyWlLk6GJQsqaUBKTNV-1" parent="WIyWlLk6GJQsqaUBKTNV-0" />
        <mxCell id="WIyWlLk6GJQsqaUBKTNV-4" value="Yes" style="rounded=0;html=1;jettySize=auto;orthogonalLoop=1;fontSize=11;endArrow=block;endFill=0;endSize=8;strokeWidth=1;shadow=0;labelBackgroundColor=none;edgeStyle=orthogonalEdgeStyle;exitX=1;exitY=0.5;exitDx=0;exitDy=0;entryX=0;entryY=0.5;entryDx=0;entryDy=0;" parent="WIyWlLk6GJQsqaUBKTNV-1" source="nQWikx5WPig7bQD3c-_u-13" target="nQWikx5WPig7bQD3c-_u-15" edge="1">
          <mxGeometry y="20" relative="1" as="geometry">
            <mxPoint as="offset" />
            <mxPoint x="320" y="652.5" as="targetPoint" />
          </mxGeometry>
        </mxCell>
        <mxCell id="WIyWlLk6GJQsqaUBKTNV-5" value="No" style="edgeStyle=orthogonalEdgeStyle;rounded=0;html=1;jettySize=auto;orthogonalLoop=1;fontSize=11;endArrow=block;endFill=0;endSize=8;strokeWidth=1;shadow=0;labelBackgroundColor=none;exitX=0.5;exitY=1;exitDx=0;exitDy=0;entryX=0.5;entryY=0;entryDx=0;entryDy=0;" parent="WIyWlLk6GJQsqaUBKTNV-1" source="nQWikx5WPig7bQD3c-_u-13" target="nQWikx5WPig7bQD3c-_u-16" edge="1">
          <mxGeometry y="10" relative="1" as="geometry">
            <mxPoint as="offset" />
            <mxPoint x="220" y="757.5" as="targetPoint" />
          </mxGeometry>
        </mxCell>
        <mxCell id="nQWikx5WPig7bQD3c-_u-0" value="&lt;h1&gt;ITSC1212 Demo Flowchart - D.I. von Briesen - 2/2/21 - 4:38 v1.0&lt;/h1&gt;&lt;p&gt;This is to demonstrate some basic flowchartting&lt;/p&gt;" style="text;html=1;strokeColor=none;fillColor=none;spacing=5;spacingTop=-20;whiteSpace=wrap;overflow=hidden;rounded=0;" vertex="1" parent="WIyWlLk6GJQsqaUBKTNV-1">
          <mxGeometry x="60" y="30" width="730" height="80" as="geometry" />
        </mxCell>
        <mxCell id="nQWikx5WPig7bQD3c-_u-30" value="" style="edgeStyle=orthogonalEdgeStyle;rounded=0;orthogonalLoop=1;jettySize=auto;html=1;" edge="1" parent="WIyWlLk6GJQsqaUBKTNV-1" source="nQWikx5WPig7bQD3c-_u-1" target="nQWikx5WPig7bQD3c-_u-4">
          <mxGeometry relative="1" as="geometry" />
        </mxCell>
        <mxCell id="nQWikx5WPig7bQD3c-_u-1" value="PRINT&lt;br&gt;sGreeting" style="shape=process;whiteSpace=wrap;html=1;backgroundOutline=1;" vertex="1" parent="WIyWlLk6GJQsqaUBKTNV-1">
          <mxGeometry x="450" y="1020" width="120" height="60" as="geometry" />
        </mxCell>
        <mxCell id="nQWikx5WPig7bQD3c-_u-8" value="" style="edgeStyle=orthogonalEdgeStyle;rounded=0;orthogonalLoop=1;jettySize=auto;html=1;" edge="1" parent="WIyWlLk6GJQsqaUBKTNV-1" source="nQWikx5WPig7bQD3c-_u-3" target="nQWikx5WPig7bQD3c-_u-6">
          <mxGeometry relative="1" as="geometry" />
        </mxCell>
        <mxCell id="nQWikx5WPig7bQD3c-_u-3" value="START" style="ellipse;whiteSpace=wrap;html=1;" vertex="1" parent="WIyWlLk6GJQsqaUBKTNV-1">
          <mxGeometry x="80" y="120" width="80" height="50" as="geometry" />
        </mxCell>
        <mxCell id="nQWikx5WPig7bQD3c-_u-4" value="STOP" style="ellipse;whiteSpace=wrap;html=1;" vertex="1" parent="WIyWlLk6GJQsqaUBKTNV-1">
          <mxGeometry x="620" y="1040" width="80" height="50" as="geometry" />
        </mxCell>
        <mxCell id="nQWikx5WPig7bQD3c-_u-10" value="" style="edgeStyle=orthogonalEdgeStyle;rounded=0;orthogonalLoop=1;jettySize=auto;html=1;" edge="1" parent="WIyWlLk6GJQsqaUBKTNV-1" source="nQWikx5WPig7bQD3c-_u-5" target="nQWikx5WPig7bQD3c-_u-7">
          <mxGeometry relative="1" as="geometry" />
        </mxCell>
        <mxCell id="nQWikx5WPig7bQD3c-_u-5" value="GET&lt;br&gt;lastName" style="shape=parallelogram;perimeter=parallelogramPerimeter;whiteSpace=wrap;html=1;fixedSize=1;" vertex="1" parent="WIyWlLk6GJQsqaUBKTNV-1">
          <mxGeometry x="60" y="300" width="120" height="60" as="geometry" />
        </mxCell>
        <mxCell id="nQWikx5WPig7bQD3c-_u-9" value="" style="edgeStyle=orthogonalEdgeStyle;rounded=0;orthogonalLoop=1;jettySize=auto;html=1;" edge="1" parent="WIyWlLk6GJQsqaUBKTNV-1" source="nQWikx5WPig7bQD3c-_u-6" target="nQWikx5WPig7bQD3c-_u-5">
          <mxGeometry relative="1" as="geometry" />
        </mxCell>
        <mxCell id="nQWikx5WPig7bQD3c-_u-6" value="GET&lt;br&gt;firstName" style="shape=parallelogram;perimeter=parallelogramPerimeter;whiteSpace=wrap;html=1;fixedSize=1;" vertex="1" parent="WIyWlLk6GJQsqaUBKTNV-1">
          <mxGeometry x="60" y="201" width="120" height="60" as="geometry" />
        </mxCell>
        <mxCell id="nQWikx5WPig7bQD3c-_u-14" value="" style="edgeStyle=orthogonalEdgeStyle;rounded=0;orthogonalLoop=1;jettySize=auto;html=1;" edge="1" parent="WIyWlLk6GJQsqaUBKTNV-1" source="nQWikx5WPig7bQD3c-_u-7" target="nQWikx5WPig7bQD3c-_u-12">
          <mxGeometry relative="1" as="geometry" />
        </mxCell>
        <mxCell id="nQWikx5WPig7bQD3c-_u-7" value="GET&lt;br&gt;preferredTitle" style="shape=parallelogram;perimeter=parallelogramPerimeter;whiteSpace=wrap;html=1;fixedSize=1;" vertex="1" parent="WIyWlLk6GJQsqaUBKTNV-1">
          <mxGeometry x="60" y="400" width="120" height="60" as="geometry" />
        </mxCell>
        <mxCell id="nQWikx5WPig7bQD3c-_u-20" value="" style="edgeStyle=orthogonalEdgeStyle;rounded=0;orthogonalLoop=1;jettySize=auto;html=1;" edge="1" parent="WIyWlLk6GJQsqaUBKTNV-1" source="nQWikx5WPig7bQD3c-_u-12" target="nQWikx5WPig7bQD3c-_u-13">
          <mxGeometry relative="1" as="geometry" />
        </mxCell>
        <mxCell id="nQWikx5WPig7bQD3c-_u-12" value="GET time from system and assign to currentTIme" style="rounded=0;whiteSpace=wrap;html=1;" vertex="1" parent="WIyWlLk6GJQsqaUBKTNV-1">
          <mxGeometry x="60" y="500" width="120" height="60" as="geometry" />
        </mxCell>
        <mxCell id="nQWikx5WPig7bQD3c-_u-13" value="IF currentTime &lt;br&gt;before NOON" style="rhombus;whiteSpace=wrap;html=1;" vertex="1" parent="WIyWlLk6GJQsqaUBKTNV-1">
          <mxGeometry x="55" y="612.5" width="130" height="80" as="geometry" />
        </mxCell>
        <mxCell id="nQWikx5WPig7bQD3c-_u-28" value="" style="edgeStyle=orthogonalEdgeStyle;rounded=0;orthogonalLoop=1;jettySize=auto;html=1;entryX=0.5;entryY=0;entryDx=0;entryDy=0;" edge="1" parent="WIyWlLk6GJQsqaUBKTNV-1" source="nQWikx5WPig7bQD3c-_u-15" target="nQWikx5WPig7bQD3c-_u-31">
          <mxGeometry relative="1" as="geometry" />
        </mxCell>
        <mxCell id="nQWikx5WPig7bQD3c-_u-15" value="SET timeGreeting to &quot;Good Morning&quot;" style="rounded=0;whiteSpace=wrap;html=1;" vertex="1" parent="WIyWlLk6GJQsqaUBKTNV-1">
          <mxGeometry x="240" y="622.5" width="120" height="60" as="geometry" />
        </mxCell>
        <mxCell id="nQWikx5WPig7bQD3c-_u-16" value="ELSE IF&lt;br&gt;&amp;nbsp;currentTime &lt;br&gt;before EVENING" style="rhombus;whiteSpace=wrap;html=1;" vertex="1" parent="WIyWlLk6GJQsqaUBKTNV-1">
          <mxGeometry x="55" y="730" width="130" height="80" as="geometry" />
        </mxCell>
        <mxCell id="nQWikx5WPig7bQD3c-_u-27" value="" style="edgeStyle=orthogonalEdgeStyle;rounded=0;orthogonalLoop=1;jettySize=auto;html=1;entryX=0.5;entryY=0;entryDx=0;entryDy=0;" edge="1" parent="WIyWlLk6GJQsqaUBKTNV-1" source="nQWikx5WPig7bQD3c-_u-18" target="nQWikx5WPig7bQD3c-_u-31">
          <mxGeometry relative="1" as="geometry" />
        </mxCell>
        <mxCell id="nQWikx5WPig7bQD3c-_u-18" value="SET timeGreeting to &quot;Good Evening&quot;" style="rounded=0;whiteSpace=wrap;html=1;" vertex="1" parent="WIyWlLk6GJQsqaUBKTNV-1">
          <mxGeometry x="240" y="740" width="120" height="60" as="geometry" />
        </mxCell>
        <mxCell id="nQWikx5WPig7bQD3c-_u-19" value="Yes" style="rounded=0;html=1;jettySize=auto;orthogonalLoop=1;fontSize=11;endArrow=block;endFill=0;endSize=8;strokeWidth=1;shadow=0;labelBackgroundColor=none;edgeStyle=orthogonalEdgeStyle;entryX=0;entryY=0.5;entryDx=0;entryDy=0;exitX=1;exitY=0.5;exitDx=0;exitDy=0;" edge="1" parent="WIyWlLk6GJQsqaUBKTNV-1" source="nQWikx5WPig7bQD3c-_u-16" target="nQWikx5WPig7bQD3c-_u-18">
          <mxGeometry y="20" relative="1" as="geometry">
            <mxPoint as="offset" />
            <mxPoint x="190" y="740" as="sourcePoint" />
            <mxPoint x="330" y="625" as="targetPoint" />
          </mxGeometry>
        </mxCell>
        <mxCell id="nQWikx5WPig7bQD3c-_u-21" value="No" style="edgeStyle=orthogonalEdgeStyle;rounded=0;html=1;jettySize=auto;orthogonalLoop=1;fontSize=11;endArrow=block;endFill=0;endSize=8;strokeWidth=1;shadow=0;labelBackgroundColor=none;exitX=0.5;exitY=1;exitDx=0;exitDy=0;entryX=0.45;entryY=-0.017;entryDx=0;entryDy=0;entryPerimeter=0;" edge="1" parent="WIyWlLk6GJQsqaUBKTNV-1" target="nQWikx5WPig7bQD3c-_u-23" source="nQWikx5WPig7bQD3c-_u-16">
          <mxGeometry y="10" relative="1" as="geometry">
            <mxPoint as="offset" />
            <mxPoint x="120" y="846.25" as="sourcePoint" />
            <mxPoint x="125" y="898" as="targetPoint" />
          </mxGeometry>
        </mxCell>
        <mxCell id="nQWikx5WPig7bQD3c-_u-26" value="" style="edgeStyle=orthogonalEdgeStyle;rounded=0;orthogonalLoop=1;jettySize=auto;html=1;entryX=0;entryY=0.5;entryDx=0;entryDy=0;" edge="1" parent="WIyWlLk6GJQsqaUBKTNV-1" source="nQWikx5WPig7bQD3c-_u-23" target="nQWikx5WPig7bQD3c-_u-31">
          <mxGeometry relative="1" as="geometry" />
        </mxCell>
        <mxCell id="nQWikx5WPig7bQD3c-_u-23" value="SET timeGreeting to &quot;Good Night&quot;" style="rounded=0;whiteSpace=wrap;html=1;" vertex="1" parent="WIyWlLk6GJQsqaUBKTNV-1">
          <mxGeometry x="65" y="875" width="120" height="60" as="geometry" />
        </mxCell>
        <mxCell id="nQWikx5WPig7bQD3c-_u-29" value="" style="edgeStyle=orthogonalEdgeStyle;rounded=0;orthogonalLoop=1;jettySize=auto;html=1;" edge="1" parent="WIyWlLk6GJQsqaUBKTNV-1" source="nQWikx5WPig7bQD3c-_u-25" target="nQWikx5WPig7bQD3c-_u-1">
          <mxGeometry relative="1" as="geometry" />
        </mxCell>
        <mxCell id="nQWikx5WPig7bQD3c-_u-25" value="COMBINE timeGreeting with fullTItleName and format" style="rounded=0;whiteSpace=wrap;html=1;" vertex="1" parent="WIyWlLk6GJQsqaUBKTNV-1">
          <mxGeometry x="490" y="890" width="120" height="60" as="geometry" />
        </mxCell>
        <mxCell id="nQWikx5WPig7bQD3c-_u-32" value="" style="edgeStyle=orthogonalEdgeStyle;rounded=0;orthogonalLoop=1;jettySize=auto;html=1;" edge="1" parent="WIyWlLk6GJQsqaUBKTNV-1" source="nQWikx5WPig7bQD3c-_u-31" target="nQWikx5WPig7bQD3c-_u-25">
          <mxGeometry relative="1" as="geometry" />
        </mxCell>
        <mxCell id="nQWikx5WPig7bQD3c-_u-31" value="COMBINE Name and title as desired to fullTitledName" style="rounded=0;whiteSpace=wrap;html=1;" vertex="1" parent="WIyWlLk6GJQsqaUBKTNV-1">
          <mxGeometry x="490" y="790" width="120" height="60" as="geometry" />
        </mxCell>
      </root>
    </mxGraphModel>
  </diagram>
</mxfile>
